<svg width="166" height="49" viewBox="0 0 166 49" fill="none" xmlns="http://www.w3.org/2000/svg">
<path d="M16.9194 10.3767C17.0092 8.93213 16.9194 7.44456 17.2258 6.05366C18.1188 2.04742 22.0445 -0.530316 26.06 0.0926377C30.2605 0.747813 33.0767 4.2385 32.8547 8.52936C32.6328 12.8471 29.4732 16.0854 25.2886 16.225C23.4605 16.284 21.6323 16.225 19.8043 16.2411C17.5111 16.2626 16.8454 16.9338 16.8032 19.227C16.7662 21.375 16.8718 23.534 16.6393 25.6606C16.1638 30.0374 12.4495 32.9587 8.07994 32.5882C3.71041 32.2176 0.788583 28.727 0.899539 24.0172C0.999927 19.8391 4.30745 16.5364 8.53962 16.4291C10.3677 16.3807 12.1959 16.4291 14.024 16.4129C16.2008 16.3915 16.9723 15.5913 17.004 13.3465C17.0197 12.3584 17.004 11.3702 17.004 10.3875H16.9194V10.3767Z" fill="#47499A"/>
<path d="M33.1084 26.7723C33.1084 26.015 33.1031 25.2632 33.1084 24.506C33.1665 19.7479 36.511 16.3753 41.1289 16.4183C45.6252 16.4613 48.9803 19.9412 48.9644 24.5489C48.9486 29.1512 45.641 32.5345 41.0655 32.599C39.3536 32.6258 37.6364 32.599 35.9245 32.6097C33.5681 32.6258 32.9129 33.3025 32.8759 35.7514C32.8442 37.7813 32.9393 39.8221 32.7702 41.8412C32.4374 45.7723 29.3993 48.7098 25.5793 48.9783C21.5954 49.2576 18.1717 46.8141 17.2048 43.0012C15.8785 37.7652 19.482 32.9105 24.8078 32.7869C26.636 32.744 28.4641 32.7977 30.2922 32.7762C32.2788 32.7494 33.0503 31.9545 33.1031 29.8977C33.1296 28.8505 33.1031 27.8087 33.1031 26.7615L33.1084 26.7723Z" fill="#D8B8F3"/>
<path d="M147.353 36.7584V11.6667H151.924V32.8154H164.792V36.7584H147.353Z" fill="#081F3B"/>
<path d="M140.38 36.7584H135.458L130.428 29.4101C130.112 29.4459 129.796 29.4459 129.48 29.4459H123.924V36.7584H119.353V11.6667H129.48C135.949 11.6667 139.958 15.0361 139.958 20.5921C139.958 24.3917 138.058 27.1877 134.718 28.514L140.38 36.7584ZM135.352 20.5921C135.352 17.4377 133.277 15.6096 129.268 15.6096H123.924V25.6104H129.268C133.277 25.6104 135.352 23.7465 135.352 20.5921Z" fill="#081F3B"/>
<path d="M99.5107 36.7584V15.6096H91.3531V11.6667H112.239V15.6096H104.082V36.7584H99.5107Z" fill="#081F3B"/>
<path d="M75.9012 11.6667C80.0147 11.6667 83.4607 13.0647 85.7822 15.753L82.8993 18.6207C80.9645 16.6493 78.7488 15.753 76.1128 15.753C70.873 15.7531 67.1816 19.3735 67.1816 24.571C67.1816 29.661 70.873 33.3889 76.0774 33.389C77.8255 33.389 79.5371 33.0343 81.1129 32.1145L85.4662 34.1964V34.2853C82.8993 36.4001 79.312 37.4754 75.8306 37.4754C68.2003 37.4754 62.5753 32.0626 62.5753 24.571C62.5753 17.0793 68.2004 11.6667 75.9012 11.6667Z" fill="#081F3B"/>
<path d="M132.098 45.2948V41.5344H130.687V40.8333H134.299V41.5344H132.888V45.2948H132.098Z" fill="#081F3B"/>
<path d="M136.575 44.6H138.973V45.2948H135.786V40.8333H138.888V41.528H136.575V42.688H138.627V43.37H136.575V44.6Z" fill="#081F3B"/>
<path d="M140.46 45.2948V40.8333H141.239V44.5937H143.434V45.2948H140.46Z" fill="#081F3B"/>
<path d="M145.71 44.6H148.108V45.2948H144.921V40.8333H148.023V41.528H145.71V42.688H147.762V43.37H145.71V44.6Z" fill="#081F3B"/>
<path d="M152.994 44.3653V43.0145H153.786V44.7433C153.316 45.1089 152.659 45.2948 152.022 45.2948C150.625 45.2948 149.595 44.3591 149.595 43.0641C149.595 41.769 150.625 40.8333 152.035 40.8333C152.788 40.8333 153.419 41.075 153.844 41.5397L153.316 42.0354C152.962 41.6946 152.556 41.5397 152.074 41.5397C151.114 41.5397 150.438 42.1656 150.438 43.0641C150.438 43.944 151.114 44.5884 152.067 44.5884C152.389 44.5884 152.704 44.5264 152.994 44.3653Z" fill="#081F3B"/>
<path d="M158.943 45.2948H158.097L157.233 43.9882C157.179 43.9946 157.125 43.9946 157.071 43.9946H156.116V45.2948H155.331V40.8333H157.071C158.182 40.8333 158.87 41.4324 158.87 42.4203C158.87 43.0959 158.544 43.593 157.97 43.8289L158.943 45.2948ZM158.079 42.4203C158.079 41.8594 157.723 41.5344 157.034 41.5344H156.116V43.3126H157.034C157.723 43.3126 158.079 42.9812 158.079 42.4203Z" fill="#081F3B"/>
<path d="M164.266 45.2948L163.835 44.2623H161.68L161.255 45.2948H160.43L162.37 40.8333H163.158L165.104 45.2948H164.266ZM161.951 43.6122H163.571L162.758 41.6619L161.951 43.6122Z" fill="#081F3B"/>
<path d="M124.583 45.2948V43.3317L123.09 40.8631H124.012L125.154 42.7904H124.827L125.963 40.8631H126.885L125.398 43.3258V45.2948H124.583Z" fill="#081F3B"/>
<path d="M119.215 45.2948V40.8631H121.083C121.376 40.8631 121.626 40.9146 121.832 41.0177C122.042 41.1169 122.203 41.2596 122.314 41.446C122.429 41.6285 122.487 41.8505 122.487 42.1123C122.487 42.3145 122.431 42.5049 122.32 42.6833C122.213 42.8578 122.04 43.0026 121.802 43.1176V42.7428C122.021 42.8261 122.193 42.9292 122.32 43.0521C122.447 43.1751 122.536 43.3119 122.588 43.4626C122.639 43.6133 122.665 43.7719 122.665 43.9385C122.665 44.3628 122.524 44.6959 122.243 44.9378C121.965 45.1758 121.578 45.2948 121.083 45.2948H119.215ZM120.024 44.5809H121.166C121.376 44.5809 121.543 44.5234 121.666 44.4084C121.793 44.2894 121.856 44.1328 121.856 43.9385C121.856 43.7442 121.793 43.5875 121.666 43.4685C121.543 43.3496 121.376 43.2901 121.166 43.2901H120.024V44.5809ZM120.024 42.5822H121.124C121.291 42.5822 121.424 42.5346 121.523 42.4394C121.622 42.3403 121.672 42.2134 121.672 42.0587C121.672 41.9041 121.622 41.7811 121.523 41.6899C121.424 41.5987 121.291 41.5531 121.124 41.5531H120.024V42.5822Z" fill="#081F3B"/>
</svg>
